<?xml version="1.0" standalone="no"?>
<!DOCTYPE svg PUBLIC "-//W3C//DTD SVG 20010904//EN"
 "http://www.w3.org/TR/2001/REC-SVG-20010904/DTD/svg10.dtd">
<svg version="1.0" xmlns="http://www.w3.org/2000/svg"
 width="512.000000pt" height="512.000000pt" viewBox="0 0 512.000000 512.000000"
 preserveAspectRatio="xMidYMid meet">
<metadata>
Created by potrace 1.14, written by Peter Selinger 2001-2017
</metadata>
<g transform="translate(0.000000,512.000000) scale(0.100000,-0.100000)"
fill="#000000" stroke="none">
<path d="M2035 3784 c-41 -10 -100 -61 -132 -114 -95 -158 -94 -298 1 -442 16
-25 17 -28 2 -28 -9 0 -16 -4 -16 -9 0 -11 -150 -76 -213 -91 -64 -17 -154 -9
-208 18 -66 34 -140 122 -221 265 -91 159 -133 215 -183 245 -35 21 -49 23
-120 18 -170 -10 -335 -106 -436 -252 -87 -127 -280 -621 -334 -855 -30 -132
-36 -265 -15 -335 12 -39 10 -46 -74 -247 -47 -114 -86 -215 -86 -225 0 -29
28 -60 93 -103 146 -95 405 -196 602 -235 95 -18 126 -24 165 -29 25 -3 56 -7
70 -10 75 -15 388 -18 1695 -19 1307 0 1578 3 1655 19 14 3 42 8 64 11 109 17
271 76 384 142 153 88 269 233 287 357 4 24 14 50 22 57 17 14 52 79 65 123
17 55 19 187 3 247 -28 110 -90 206 -165 253 -72 46 -245 95 -385 111 -27 3
-60 7 -72 9 -11 2 -70 6 -130 10 -59 4 -126 8 -148 9 -22 2 -85 23 -140 48
-174 79 -177 80 -171 102 10 40 -6 78 -40 92 -36 15 -58 11 -91 -18 -21 -20
-22 -20 -65 0 -68 32 -71 35 -57 65 9 20 9 33 0 55 -22 54 -85 62 -130 17
l-25 -24 -50 27 c-28 14 -53 27 -55 29 -2 1 2 15 8 31 18 42 5 78 -34 96 -38
18 -68 11 -99 -22 l-18 -21 -47 25 c-61 34 -68 41 -53 56 15 15 15 58 -1 79
-31 40 -85 44 -122 9 -12 -11 -24 -20 -28 -20 -10 0 -320 199 -462 295 -188
129 -290 174 -405 180 -36 2 -74 1 -85 -1z"/>
</g>
</svg>
